<svg width="195" height="40" viewBox="0 0 195 40" fill="none" xmlns="http://www.w3.org/2000/svg">
<path fill-rule="evenodd" clip-rule="evenodd" d="M24.7105 24.3729C20.7989 26.53 15.9109 26.1635 12.5733 23.1036C8.33966 19.2222 8.20357 12.4771 12.2693 8.03793C16.3351 3.59874 23.063 3.1465 27.2966 7.02783C30.6343 10.0878 31.4252 14.9276 29.6183 19.0143L20.0791 10.2689L15.1713 15.6275L24.7105 24.3729Z" fill="#F77F00"/>
<path fill-rule="evenodd" clip-rule="evenodd" d="M10.2642 20.9861C8.4573 25.0728 9.24823 29.9127 12.5859 32.9726C16.8195 36.8539 23.5475 36.4017 27.6132 31.9625C31.679 27.5233 31.5429 20.7782 27.3093 16.8969C23.9716 13.8369 19.0836 13.4704 15.172 15.6276L24.7112 24.373L19.8034 29.7316L10.2642 20.9861Z" fill="#1D3557"/>
<path d="M54.9252 29.4482L51.2113 22.7071H50.1683V29.4482H45.8184V11.5906H53.1191C54.5267 11.5906 55.7223 11.8365 56.7059 12.3283C57.7065 12.8202 58.4527 13.4985 58.9445 14.3634C59.4363 15.2113 59.6822 16.161 59.6822 17.2125C59.6822 18.3996 59.343 19.4595 58.6647 20.3923C58.0033 21.325 57.0197 21.9864 55.7138 22.3764L59.8348 29.4482H54.9252ZM50.1683 19.6291H52.8648C53.6618 19.6291 54.2554 19.4341 54.6454 19.044C55.0524 18.654 55.2559 18.1028 55.2559 17.3905C55.2559 16.7122 55.0524 16.178 54.6454 15.7879C54.2554 15.3979 53.6618 15.2029 52.8648 15.2029H50.1683V19.6291ZM75.7933 22.122C75.7933 22.5291 75.7679 22.953 75.717 23.394H65.8724C65.9402 24.2758 66.2201 24.9542 66.7119 25.429C67.2206 25.8869 67.8396 26.1158 68.5689 26.1158C69.6542 26.1158 70.4089 25.658 70.8329 24.7422H75.4626C75.2252 25.6749 74.7927 26.5144 74.1653 27.2606C73.5547 28.0067 72.7831 28.5918 71.8504 29.0158C70.9176 29.4398 69.8747 29.6517 68.7215 29.6517C67.3309 29.6517 66.0929 29.355 65.0075 28.7614C63.9221 28.1679 63.0742 27.3199 62.4637 26.2176C61.8532 25.1153 61.5479 23.8264 61.5479 22.351C61.5479 20.8756 61.8447 19.5867 62.4383 18.4844C63.0488 17.3821 63.8967 16.5341 64.9821 15.9406C66.0674 15.347 67.3139 15.0502 68.7215 15.0502C70.0951 15.0502 71.3162 15.3385 72.3846 15.9151C73.453 16.4917 74.284 17.3142 74.8775 18.3826C75.488 19.451 75.7933 20.6975 75.7933 22.122ZM71.3416 20.9773C71.3416 20.2311 71.0872 19.6376 70.5785 19.1967C70.0697 18.7557 69.4338 18.5353 68.6706 18.5353C67.9414 18.5353 67.3224 18.7472 66.8136 19.1712C66.3218 19.5952 66.0166 20.1972 65.8978 20.9773H71.3416ZM82.438 17.2634C82.862 16.602 83.4471 16.0678 84.1933 15.6607C84.9394 15.2537 85.8128 15.0502 86.8134 15.0502C87.9836 15.0502 89.0435 15.347 89.9932 15.9406C90.9429 16.5341 91.689 17.3821 92.2317 18.4844C92.7914 19.5867 93.0712 20.8671 93.0712 22.3256C93.0712 23.784 92.7914 25.0729 92.2317 26.1922C91.689 27.2945 90.9429 28.1509 89.9932 28.7614C89.0435 29.355 87.9836 29.6517 86.8134 29.6517C85.8298 29.6517 84.9564 29.4482 84.1933 29.0412C83.4471 28.6342 82.862 28.1085 82.438 27.4641V36.2148H78.0881V15.2537H82.438V17.2634ZM88.6449 22.3256C88.6449 21.2402 88.3397 20.3923 87.7292 19.7817C87.1356 19.1543 86.3979 18.8405 85.516 18.8405C84.6511 18.8405 83.9134 19.1543 83.3029 19.7817C82.7094 20.4092 82.4126 21.2656 82.4126 22.351C82.4126 23.4364 82.7094 24.2928 83.3029 24.9202C83.9134 25.5477 84.6511 25.8615 85.516 25.8615C86.3809 25.8615 87.1187 25.5477 87.7292 24.9202C88.3397 24.2758 88.6449 23.4109 88.6449 22.3256ZM94.4884 22.3256C94.4884 20.8671 94.7597 19.5867 95.3024 18.4844C95.862 17.3821 96.6167 16.5341 97.5664 15.9406C98.5161 15.347 99.576 15.0502 100.746 15.0502C101.747 15.0502 102.62 15.2537 103.366 15.6607C104.129 16.0678 104.715 16.602 105.122 17.2634V15.2537H109.471V29.4482H105.122V27.4386C104.698 28.1 104.104 28.6342 103.341 29.0412C102.595 29.4482 101.721 29.6517 100.721 29.6517C99.5675 29.6517 98.5161 29.355 97.5664 28.7614C96.6167 28.1509 95.862 27.2945 95.3024 26.1922C94.7597 25.0729 94.4884 23.784 94.4884 22.3256ZM105.122 22.351C105.122 21.2656 104.816 20.4092 104.206 19.7817C103.612 19.1543 102.883 18.8405 102.018 18.8405C101.153 18.8405 100.415 19.1543 99.8049 19.7817C99.2114 20.3923 98.9146 21.2402 98.9146 22.3256C98.9146 23.4109 99.2114 24.2758 99.8049 24.9202C100.415 25.5477 101.153 25.8615 102.018 25.8615C102.883 25.8615 103.612 25.5477 104.206 24.9202C104.816 24.2928 105.122 23.4364 105.122 22.351ZM114.806 13.7783C114.043 13.7783 113.415 13.5579 112.924 13.1169C112.449 12.659 112.211 12.0994 112.211 11.438C112.211 10.7597 112.449 10.2 112.924 9.75909C113.415 9.3012 114.043 9.07226 114.806 9.07226C115.552 9.07226 116.163 9.3012 116.638 9.75909C117.129 10.2 117.375 10.7597 117.375 11.438C117.375 12.0994 117.129 12.659 116.638 13.1169C116.163 13.5579 115.552 13.7783 114.806 13.7783ZM116.968 15.2537V29.4482H112.618V15.2537H116.968ZM124.471 17.6195C124.979 16.8394 125.615 16.2289 126.379 15.7879C127.142 15.3301 127.99 15.1011 128.922 15.1011V19.7054H127.727C126.641 19.7054 125.827 19.9428 125.285 20.4177C124.742 20.8756 124.471 21.6896 124.471 22.8598V29.4482H120.121V15.2537H124.471V17.6195ZM137.463 29.6263C136.157 29.6263 134.987 29.4143 133.952 28.9904C132.918 28.5664 132.087 27.9389 131.459 27.1079C130.849 26.2769 130.527 25.2764 130.493 24.1062H135.122C135.19 24.7676 135.419 25.2764 135.809 25.6325C136.199 25.9717 136.708 26.1413 137.336 26.1413C137.98 26.1413 138.489 25.9971 138.862 25.7088C139.235 25.4036 139.422 24.9881 139.422 24.4624C139.422 24.0214 139.269 23.6568 138.964 23.3685C138.675 23.0802 138.311 22.8428 137.87 22.6562C137.446 22.4697 136.835 22.2577 136.038 22.0203C134.885 21.6642 133.944 21.308 133.215 20.9519C132.485 20.5958 131.858 20.07 131.332 19.3747C130.806 18.6794 130.544 17.7721 130.544 16.6528C130.544 14.9909 131.146 13.6935 132.35 12.7608C133.554 11.8111 135.122 11.3363 137.056 11.3363C139.023 11.3363 140.609 11.8111 141.813 12.7608C143.017 13.6935 143.661 14.9994 143.746 16.6783H139.04C139.006 16.1017 138.794 15.6523 138.404 15.3301C138.014 14.9909 137.514 14.8213 136.903 14.8213C136.377 14.8213 135.953 14.9654 135.631 15.2537C135.309 15.5251 135.148 15.9236 135.148 16.4493C135.148 17.0259 135.419 17.4753 135.962 17.7976C136.505 18.1198 137.353 18.4674 138.506 18.8405C139.659 19.2306 140.592 19.6037 141.304 19.9598C142.033 20.3159 142.661 20.8332 143.186 21.5115C143.712 22.1899 143.975 23.0633 143.975 24.1317C143.975 25.1492 143.712 26.0734 143.186 26.9044C142.678 27.7354 141.931 28.3968 140.948 28.8886C139.964 29.3804 138.803 29.6263 137.463 29.6263ZM160.032 22.122C160.032 22.5291 160.007 22.953 159.956 23.394H150.112C150.179 24.2758 150.459 24.9542 150.951 25.429C151.46 25.8869 152.079 26.1158 152.808 26.1158C153.893 26.1158 154.648 25.658 155.072 24.7422H159.702C159.464 25.6749 159.032 26.5144 158.404 27.2606C157.794 28.0067 157.022 28.5918 156.089 29.0158C155.157 29.4398 154.114 29.6517 152.961 29.6517C151.57 29.6517 150.332 29.355 149.247 28.7614C148.161 28.1679 147.313 27.3199 146.703 26.2176C146.092 25.1153 145.787 23.8264 145.787 22.351C145.787 20.8756 146.084 19.5867 146.677 18.4844C147.288 17.3821 148.136 16.5341 149.221 15.9406C150.307 15.347 151.553 15.0502 152.961 15.0502C154.334 15.0502 155.555 15.3385 156.624 15.9151C157.692 16.4917 158.523 17.3142 159.117 18.3826C159.727 19.451 160.032 20.6975 160.032 22.122ZM155.581 20.9773C155.581 20.2311 155.326 19.6376 154.818 19.1967C154.309 18.7557 153.673 18.5353 152.91 18.5353C152.18 18.5353 151.562 18.7472 151.053 19.1712C150.561 19.5952 150.256 20.1972 150.137 20.9773H155.581ZM168.712 25.3781L171.79 15.2537H176.42L171.383 29.4482H166.016L160.979 15.2537H165.634L168.712 25.3781ZM177.386 22.3256C177.386 20.8671 177.657 19.5867 178.2 18.4844C178.76 17.3821 179.514 16.5341 180.464 15.9406C181.414 15.347 182.474 15.0502 183.644 15.0502C184.644 15.0502 185.518 15.2537 186.264 15.6607C187.027 16.0678 187.612 16.602 188.019 17.2634V15.2537H192.369V29.4482H188.019V27.4386C187.595 28.1 187.002 28.6342 186.239 29.0412C185.492 29.4482 184.619 29.6517 183.618 29.6517C182.465 29.6517 181.414 29.355 180.464 28.7614C179.514 28.1509 178.76 27.2945 178.2 26.1922C177.657 25.0729 177.386 23.784 177.386 22.3256ZM188.019 22.351C188.019 21.2656 187.714 20.4092 187.103 19.7817C186.51 19.1543 185.781 18.8405 184.916 18.8405C184.051 18.8405 183.313 19.1543 182.703 19.7817C182.109 20.3923 181.812 21.2402 181.812 22.3256C181.812 23.4109 182.109 24.2758 182.703 24.9202C183.313 25.5477 184.051 25.8615 184.916 25.8615C185.781 25.8615 186.51 25.5477 187.103 24.9202C187.714 24.2928 188.019 23.4364 188.019 22.351Z" fill="#1D3557"/>
</svg>
